<svg viewBox="0 0 200 200" xmlns="http://www.w3.org/2000/svg">
  <path fill="#0F62FE" d="M41.2,-74.3C52.8,-64.7,61,-52.3,69.4,-39.5C77.9,-26.6,86.6,-13.3,86.8,0.2C87.1,13.6,79,27.2,70.3,39.8C61.7,52.4,52.6,63.8,40.8,71.5C29,79.2,14.5,83,0.1,82.8C-14.3,82.6,-28.5,78.4,-41.9,71.6C-55.2,64.9,-67.7,55.6,-74.2,43.2C-80.6,30.8,-81.1,15.4,-82.1,-0.6C-83.1,-16.5,-84.5,-33.1,-78,-45.4C-71.5,-57.7,-57.1,-65.7,-42.7,-73.7C-28.4,-81.7,-14.2,-89.5,0.3,-90.1C14.8,-90.6,29.7,-83.9,41.2,-74.3Z" transform="translate(100 100)" />
</svg>